<svg xmlns="http://www.w3.org/2000/svg" viewBox="0 0 100 100" width="100" height="100">
  <defs>
    <radialGradient id="bg" cx="30%" cy="25%" r="80%">
      <stop offset="0%" stop-color="#FFD580"/>
      <stop offset="45%" stop-color="#F5A623"/>
      <stop offset="100%" stop-color="#8B5410"/>
    </radialGradient>
    <linearGradient id="hl" x1="50%" y1="0%" x2="50%" y2="100%">
      <stop offset="0%" stop-color="white" stop-opacity="0.3"/>
      <stop offset="100%" stop-color="white" stop-opacity="0"/>
    </linearGradient>
  </defs>
  <!-- Squircle z radius 22.5% (iOS) -->
  <rect x="0" y="0" width="100" height="100" rx="22.5" fill="url(#bg)"/>
  <!-- Highlight u góry -->
  <rect x="0" y="0" width="100" height="50" rx="22.5" fill="url(#hl)"/>
  <!-- R w stylu Revolut, skalowane do viewBox 100×100, marginesy ~11px każda strona -->
  <g transform="translate(11, 11) scale(0.78)">
    <path fill="#0a0a0a" d="M 18 8 L 18 92 L 38 92 L 38 62 L 50 62 L 72 92 L 95 92 L 70 56 C 84 50, 86 36, 86 30 C 86 16, 76 8, 58 8 Z M 38 26 L 56 26 C 64 26, 68 28, 68 34 C 68 40, 64 44, 56 44 L 38 44 Z"/>
  </g>
</svg>
